<?xml version="1.0" encoding="UTF-8" standalone="no"?>
<!DOCTYPE svg PUBLIC "-//W3C//DTD SVG 1.1//EN"
 "http://www.w3.org/Graphics/SVG/1.1/DTD/svg11.dtd">
<!-- Generated by graphviz version 2.44.1 (20200629.0846)
 -->
<!-- Title: workflow Pages: 1 -->
<svg width="608pt" height="930pt"
 viewBox="0.00 0.00 608.00 929.50" xmlns="http://www.w3.org/2000/svg" xmlns:xlink="http://www.w3.org/1999/xlink">
<g id="graph0" class="graph" transform="scale(1 1) rotate(0) translate(4 925.5)">
<title>workflow</title>
<polygon fill="white" stroke="#000000" points="-4,4 -4,-925.5 604,-925.5 604,4 -4,4"/>
<text text-anchor="start" x="214" y="-902.5" font-family="Avenir" font-weight="bold" font-size="20.00">Example Latencies</text>
<g id="clust1" class="cluster">
<title>cluster_7b3363e1&#45;f526&#45;4b88&#45;9bb1&#45;5e464547a436_Some Work</title>
<polygon fill="none" stroke="#a50026" points="8,-481 8,-846.5 148,-846.5 148,-481 8,-481"/>
<text text-anchor="start" x="50.5" y="-835.5" font-family="Avenir" font-weight="bold" font-size="10.00">Some Work</text>
</g>
<g id="clust2" class="cluster">
<title>cluster_9fd95638&#45;02b2&#45;4905&#45;a061&#45;f90648b1f707_Safely Random</title>
<polygon fill="none" stroke="#a50026" points="156,-481 156,-846.5 294,-846.5 294,-481 156,-481"/>
<text text-anchor="start" x="190" y="-835.5" font-family="Avenir" font-weight="bold" font-size="10.00">Safely Random</text>
</g>
<g id="clust3" class="cluster">
<title>cluster_7c4d382c&#45;2099&#45;4afd&#45;b086&#45;c65d9de660de_Flaky Latency</title>
<polygon fill="none" stroke="#a50026" points="458,-481 458,-774.5 592,-774.5 592,-481 458,-481"/>
<text text-anchor="start" x="493" y="-763.5" font-family="Avenir" font-weight="bold" font-size="10.00">Flaky Latency</text>
</g>
<g id="clust4" class="cluster">
<title>cluster_9ae4ddba&#45;329a&#45;4eb2&#45;8cd5&#45;358115eeefd1_Troublesome</title>
<polygon fill="none" stroke="#a50026" points="302,-590 302,-846.5 450,-846.5 450,-590 302,-590"/>
<text text-anchor="start" x="345.5" y="-835.5" font-family="Avenir" font-weight="bold" font-size="10.00">Troublesome</text>
</g>
<!-- node0d9cc4a6&#45;e744&#45;4304&#45;8c0a&#45;69525f9c882e -->
<g id="node1" class="node">
<title>node0d9cc4a6&#45;e744&#45;4304&#45;8c0a&#45;69525f9c882e</title>
<polygon fill="none" stroke="#f46d43" stroke-width="2" points="275,-855 275,-891 329,-891 329,-855 275,-855"/>
<text text-anchor="middle" x="302" y="-870.5" font-family="Avenir" font-size="10.00">START</text>
</g>
<!-- start_subgraph_9ce2f9fe&#45;a0de&#45;4ff0&#45;93d8&#45;eab85735e766_Some Work -->
<g id="node4" class="node">
<title>start_subgraph_9ce2f9fe&#45;a0de&#45;4ff0&#45;93d8&#45;eab85735e766_Some Work</title>
<polygon fill="none" stroke="#a50026" points="47.5,-783 47.5,-819 128.5,-819 128.5,-783 47.5,-783"/>
<text text-anchor="middle" x="88" y="-798.5" font-family="Avenir" font-size="10.00">Some Work ⬇️</text>
</g>
<!-- node0d9cc4a6&#45;e744&#45;4304&#45;8c0a&#45;69525f9c882e&#45;&gt;start_subgraph_9ce2f9fe&#45;a0de&#45;4ff0&#45;93d8&#45;eab85735e766_Some Work -->
<g id="edge5" class="edge">
<title>node0d9cc4a6&#45;e744&#45;4304&#45;8c0a&#45;69525f9c882e&#45;&gt;start_subgraph_9ce2f9fe&#45;a0de&#45;4ff0&#45;93d8&#45;eab85735e766_Some Work</title>
<path fill="none" stroke="#f46d43" d="M274.9,-873C217.31,-873 88,-873 88,-873 88,-873 88,-829.17 88,-829.17"/>
<polygon fill="#f46d43" stroke="#f46d43" points="91.5,-829.17 88,-819.17 84.5,-829.17 91.5,-829.17"/>
</g>
<!-- start_subgraph_7bc7cf8d&#45;3c68&#45;4579&#45;8ec0&#45;0220b705d30a_Safely Random -->
<g id="node8" class="node">
<title>start_subgraph_7bc7cf8d&#45;3c68&#45;4579&#45;8ec0&#45;0220b705d30a_Safely Random</title>
<polygon fill="none" stroke="#a50026" points="185.5,-783 185.5,-819 280.5,-819 280.5,-783 185.5,-783"/>
<text text-anchor="middle" x="233" y="-798.5" font-family="Avenir" font-size="10.00">Safely Random ⬇️</text>
</g>
<!-- node0d9cc4a6&#45;e744&#45;4304&#45;8c0a&#45;69525f9c882e&#45;&gt;start_subgraph_7bc7cf8d&#45;3c68&#45;4579&#45;8ec0&#45;0220b705d30a_Safely Random -->
<g id="edge9" class="edge">
<title>node0d9cc4a6&#45;e744&#45;4304&#45;8c0a&#45;69525f9c882e&#45;&gt;start_subgraph_7bc7cf8d&#45;3c68&#45;4579&#45;8ec0&#45;0220b705d30a_Safely Random</title>
<path fill="none" stroke="#f46d43" d="M298.25,-854.83C298.25,-833.5 298.25,-801 298.25,-801 298.25,-801 290.76,-801 290.76,-801"/>
<polygon fill="#f46d43" stroke="#f46d43" points="290.76,-797.5 280.76,-801 290.76,-804.5 290.76,-797.5"/>
</g>
<!-- start_subgraph_bfc95420&#45;bdb8&#45;46d1&#45;90e9&#45;f23fe4de7da1_Flaky Latency -->
<g id="node12" class="node">
<title>start_subgraph_bfc95420&#45;bdb8&#45;46d1&#45;90e9&#45;f23fe4de7da1_Flaky Latency</title>
<polygon fill="none" stroke="#a50026" points="473.5,-711 473.5,-747 562.5,-747 562.5,-711 473.5,-711"/>
<text text-anchor="middle" x="518" y="-726.5" font-family="Avenir" font-size="10.00">Flaky Latency ⬇️</text>
</g>
<!-- node0d9cc4a6&#45;e744&#45;4304&#45;8c0a&#45;69525f9c882e&#45;&gt;start_subgraph_bfc95420&#45;bdb8&#45;46d1&#45;90e9&#45;f23fe4de7da1_Flaky Latency -->
<g id="edge12" class="edge">
<title>node0d9cc4a6&#45;e744&#45;4304&#45;8c0a&#45;69525f9c882e&#45;&gt;start_subgraph_bfc95420&#45;bdb8&#45;46d1&#45;90e9&#45;f23fe4de7da1_Flaky Latency</title>
<path fill="none" stroke="#f46d43" d="M329.36,-873C387.48,-873 518,-873 518,-873 518,-873 518,-757.24 518,-757.24"/>
<polygon fill="#f46d43" stroke="#f46d43" points="521.5,-757.24 518,-747.24 514.5,-757.24 521.5,-757.24"/>
</g>
<!-- start_subgraph_b6107163&#45;7bb7&#45;4341&#45;aef2&#45;02409f4b8ccb_Troublesome -->
<g id="node15" class="node">
<title>start_subgraph_b6107163&#45;7bb7&#45;4341&#45;aef2&#45;02409f4b8ccb_Troublesome</title>
<polygon fill="none" stroke="#a50026" points="321,-783 321,-819 407,-819 407,-783 321,-783"/>
<text text-anchor="middle" x="364" y="-798.5" font-family="Avenir" font-size="10.00">Troublesome ⬇️</text>
</g>
<!-- node0d9cc4a6&#45;e744&#45;4304&#45;8c0a&#45;69525f9c882e&#45;&gt;start_subgraph_b6107163&#45;7bb7&#45;4341&#45;aef2&#45;02409f4b8ccb_Troublesome -->
<g id="edge15" class="edge">
<title>node0d9cc4a6&#45;e744&#45;4304&#45;8c0a&#45;69525f9c882e&#45;&gt;start_subgraph_b6107163&#45;7bb7&#45;4341&#45;aef2&#45;02409f4b8ccb_Troublesome</title>
<path fill="none" stroke="#f46d43" d="M325,-854.83C325,-854.83 325,-829.41 325,-829.41"/>
<polygon fill="#f46d43" stroke="#f46d43" points="328.5,-829.41 325,-819.41 321.5,-829.41 328.5,-829.41"/>
</g>
<!-- nodeadcaf0f3&#45;9524&#45;459c&#45;84c8&#45;24cab6be8dd3 -->
<g id="node2" class="node">
<title>nodeadcaf0f3&#45;9524&#45;459c&#45;84c8&#45;24cab6be8dd3</title>
<polygon fill="none" stroke="#f46d43" stroke-width="2" points="221.5,-380.5 221.5,-470.5 336.5,-470.5 336.5,-380.5 221.5,-380.5"/>
<text text-anchor="middle" x="279" y="-458.5" font-family="Avenir" font-size="10.00">Simulation (n=100000)</text>
<polyline fill="none" stroke="#f46d43" stroke-width="2" points="221.5,-451.5 336.5,-451.5 "/>
<text text-anchor="middle" x="279" y="-439.5" font-family="Avenir" font-size="10.00">p50=46.086</text>
<text text-anchor="middle" x="279" y="-428.5" font-family="Avenir" font-size="10.00">p99=100</text>
<text text-anchor="middle" x="279" y="-417.5" font-family="Avenir" font-size="10.00">p99.5=100</text>
<text text-anchor="middle" x="279" y="-406.5" font-family="Avenir" font-size="10.00">p100=100</text>
<polyline fill="none" stroke="#f46d43" stroke-width="2" points="221.5,-399.5 336.5,-399.5 "/>
<text text-anchor="middle" x="279" y="-387.5" font-family="Avenir" font-size="10.00">Range: [30.034 &#45; 100]</text>
</g>
<!-- nodefdf8a9a5&#45;c3bd&#45;4907&#45;a6c3&#45;25204dc6ea8e -->
<g id="node3" class="node">
<title>nodefdf8a9a5&#45;c3bd&#45;4907&#45;a6c3&#45;25204dc6ea8e</title>
<image xlink:href="Example Latencies.matplt.png" width="482px" height="362px" preserveAspectRatio="xMinYMin meet" x="38" y="-362"/>
</g>
<!-- nodeadcaf0f3&#45;9524&#45;459c&#45;84c8&#45;24cab6be8dd3&#45;&gt;nodefdf8a9a5&#45;c3bd&#45;4907&#45;a6c3&#45;25204dc6ea8e -->
<g id="edge1" class="edge">
<title>nodeadcaf0f3&#45;9524&#45;459c&#45;84c8&#45;24cab6be8dd3&#45;&gt;nodefdf8a9a5&#45;c3bd&#45;4907&#45;a6c3&#45;25204dc6ea8e</title>
<path fill="none" stroke="#f46d43" stroke-width="5" d="M279,-380.37C279,-380.37 279,-372.38 279,-372.38"/>
<polygon fill="#f46d43" stroke="#f46d43" stroke-width="5" points="283.38,-372.38 279,-362.38 274.63,-372.38 283.38,-372.38"/>
</g>
<!-- node66d0ec6a&#45;21f6&#45;4839&#45;be71&#45;76cff2d6a3e8 -->
<g id="node6" class="node">
<title>node66d0ec6a&#45;21f6&#45;4839&#45;be71&#45;76cff2d6a3e8</title>
<polygon fill="none" stroke="#a50026" points="16,-707.5 16,-750.5 140,-750.5 140,-707.5 16,-707.5"/>
<text text-anchor="middle" x="78" y="-740.1" font-family="Avenir" font-size="8.00">OK Step1 (NormalGenerator)</text>
<polyline fill="none" stroke="#a50026" points="16,-733.5 140,-733.5 "/>
<text text-anchor="middle" x="78" y="-723.1" font-family="Avenir" font-size="8.00">mean=10</text>
<text text-anchor="middle" x="78" y="-714.1" font-family="Avenir" font-size="8.00">std_dev=2</text>
</g>
<!-- start_subgraph_9ce2f9fe&#45;a0de&#45;4ff0&#45;93d8&#45;eab85735e766_Some Work&#45;&gt;node66d0ec6a&#45;21f6&#45;4839&#45;be71&#45;76cff2d6a3e8 -->
<g id="edge2" class="edge">
<title>start_subgraph_9ce2f9fe&#45;a0de&#45;4ff0&#45;93d8&#45;eab85735e766_Some Work&#45;&gt;node66d0ec6a&#45;21f6&#45;4839&#45;be71&#45;76cff2d6a3e8</title>
<path fill="none" stroke="#a50026" d="M88,-782.83C88,-782.83 88,-760.75 88,-760.75"/>
<polygon fill="#a50026" stroke="#a50026" points="91.5,-760.75 88,-750.75 84.5,-760.76 91.5,-760.75"/>
</g>
<!-- end_subgraph_a58d95dc&#45;9fbc&#45;477f&#45;aa03&#45;2b44f96de3bf_Some Work -->
<g id="node5" class="node">
<title>end_subgraph_a58d95dc&#45;9fbc&#45;477f&#45;aa03&#45;2b44f96de3bf_Some Work</title>
<polygon fill="none" stroke="#a50026" points="20.5,-489.5 20.5,-579.5 137.5,-579.5 137.5,-489.5 20.5,-489.5"/>
<text text-anchor="middle" x="79" y="-567.5" font-family="Avenir" font-size="10.00">Some Work ⬆️</text>
<polyline fill="none" stroke="#a50026" points="20.5,-560.5 137.5,-560.5 "/>
<text text-anchor="middle" x="79" y="-548.5" font-family="Avenir" font-size="10.00">p50=17.993</text>
<text text-anchor="middle" x="79" y="-537.5" font-family="Avenir" font-size="10.00">p99=24.590</text>
<text text-anchor="middle" x="79" y="-526.5" font-family="Avenir" font-size="10.00">p99.5=25.264</text>
<text text-anchor="middle" x="79" y="-515.5" font-family="Avenir" font-size="10.00">p100=33.028</text>
<polyline fill="none" stroke="#a50026" points="20.5,-508.5 137.5,-508.5 "/>
<text text-anchor="middle" x="79" y="-496.5" font-family="Avenir" font-size="10.00">Range: [6.523 &#45; 33.028]</text>
</g>
<!-- end_subgraph_a58d95dc&#45;9fbc&#45;477f&#45;aa03&#45;2b44f96de3bf_Some Work&#45;&gt;nodeadcaf0f3&#45;9524&#45;459c&#45;84c8&#45;24cab6be8dd3 -->
<g id="edge16" class="edge">
<title>end_subgraph_a58d95dc&#45;9fbc&#45;477f&#45;aa03&#45;2b44f96de3bf_Some Work&#45;&gt;nodeadcaf0f3&#45;9524&#45;459c&#45;84c8&#45;24cab6be8dd3</title>
<path fill="none" stroke="#f46d43" d="M87.75,-489.33C87.75,-459.17 87.75,-425 87.75,-425 87.75,-425 211.36,-425 211.36,-425"/>
<polygon fill="#f46d43" stroke="#f46d43" points="211.36,-428.5 221.36,-425 211.36,-421.5 211.36,-428.5"/>
</g>
<!-- node8faf24b7&#45;0588&#45;4cea&#45;b567&#45;4e5e22c43c0e -->
<g id="node7" class="node">
<title>node8faf24b7&#45;0588&#45;4cea&#45;b567&#45;4e5e22c43c0e</title>
<polygon fill="none" stroke="#a50026" points="16,-622 16,-665 140,-665 140,-622 16,-622"/>
<text text-anchor="middle" x="78" y="-654.6" font-family="Avenir" font-size="8.00">OK Step2 (NormalGenerator)</text>
<polyline fill="none" stroke="#a50026" points="16,-648 140,-648 "/>
<text text-anchor="middle" x="78" y="-637.6" font-family="Avenir" font-size="8.00">mean=8</text>
<text text-anchor="middle" x="78" y="-628.6" font-family="Avenir" font-size="8.00">std_dev=2</text>
</g>
<!-- node66d0ec6a&#45;21f6&#45;4839&#45;be71&#45;76cff2d6a3e8&#45;&gt;node8faf24b7&#45;0588&#45;4cea&#45;b567&#45;4e5e22c43c0e -->
<g id="edge3" class="edge">
<title>node66d0ec6a&#45;21f6&#45;4839&#45;be71&#45;76cff2d6a3e8&#45;&gt;node8faf24b7&#45;0588&#45;4cea&#45;b567&#45;4e5e22c43c0e</title>
<path fill="none" stroke="#a50026" d="M78,-707.42C78,-707.42 78,-675.07 78,-675.07"/>
<polygon fill="#a50026" stroke="#a50026" points="81.5,-675.07 78,-665.07 74.5,-675.07 81.5,-675.07"/>
</g>
<!-- node8faf24b7&#45;0588&#45;4cea&#45;b567&#45;4e5e22c43c0e&#45;&gt;end_subgraph_a58d95dc&#45;9fbc&#45;477f&#45;aa03&#45;2b44f96de3bf_Some Work -->
<g id="edge4" class="edge">
<title>node8faf24b7&#45;0588&#45;4cea&#45;b567&#45;4e5e22c43c0e&#45;&gt;end_subgraph_a58d95dc&#45;9fbc&#45;477f&#45;aa03&#45;2b44f96de3bf_Some Work</title>
<path fill="none" stroke="#a50026" d="M79,-621.97C79,-621.97 79,-589.88 79,-589.88"/>
<polygon fill="#a50026" stroke="#a50026" points="82.5,-589.88 79,-579.88 75.5,-589.88 82.5,-589.88"/>
</g>
<!-- node222b50a2&#45;9aa2&#45;45f7&#45;8e65&#45;286fc512189a -->
<g id="node10" class="node">
<title>node222b50a2&#45;9aa2&#45;45f7&#45;8e65&#45;286fc512189a</title>
<polygon fill="none" stroke="#a50026" points="172.5,-707.5 172.5,-750.5 283.5,-750.5 283.5,-707.5 172.5,-707.5"/>
<text text-anchor="middle" x="228" y="-740.1" font-family="Avenir" font-size="8.00">Roll 1 (UniformGenerator)</text>
<polyline fill="none" stroke="#a50026" points="172.5,-733.5 283.5,-733.5 "/>
<text text-anchor="middle" x="228" y="-723.1" font-family="Avenir" font-size="8.00">lower_bound=10</text>
<text text-anchor="middle" x="228" y="-714.1" font-family="Avenir" font-size="8.00">upper_bound=20</text>
</g>
<!-- start_subgraph_7bc7cf8d&#45;3c68&#45;4579&#45;8ec0&#45;0220b705d30a_Safely Random&#45;&gt;node222b50a2&#45;9aa2&#45;45f7&#45;8e65&#45;286fc512189a -->
<g id="edge6" class="edge">
<title>start_subgraph_7bc7cf8d&#45;3c68&#45;4579&#45;8ec0&#45;0220b705d30a_Safely Random&#45;&gt;node222b50a2&#45;9aa2&#45;45f7&#45;8e65&#45;286fc512189a</title>
<path fill="none" stroke="#a50026" d="M233,-782.83C233,-782.83 233,-760.75 233,-760.75"/>
<polygon fill="#a50026" stroke="#a50026" points="236.5,-760.75 233,-750.75 229.5,-760.76 236.5,-760.75"/>
</g>
<!-- end_subgraph_1b367ea2&#45;620a&#45;4470&#45;8d48&#45;68c6ee3da4ba_Safely Random -->
<g id="node9" class="node">
<title>end_subgraph_1b367ea2&#45;620a&#45;4470&#45;8d48&#45;68c6ee3da4ba_Safely Random</title>
<polygon fill="none" stroke="#a50026" points="164,-489.5 164,-579.5 286,-579.5 286,-489.5 164,-489.5"/>
<text text-anchor="middle" x="225" y="-567.5" font-family="Avenir" font-size="10.00">Safely Random ⬆️</text>
<polyline fill="none" stroke="#a50026" points="164,-560.5 286,-560.5 "/>
<text text-anchor="middle" x="225" y="-548.5" font-family="Avenir" font-size="10.00">p50=45.019</text>
<text text-anchor="middle" x="225" y="-537.5" font-family="Avenir" font-size="10.00">p99=58.015</text>
<text text-anchor="middle" x="225" y="-526.5" font-family="Avenir" font-size="10.00">p99.5=58.582</text>
<text text-anchor="middle" x="225" y="-515.5" font-family="Avenir" font-size="10.00">p100=59.950</text>
<polyline fill="none" stroke="#a50026" points="164,-508.5 286,-508.5 "/>
<text text-anchor="middle" x="225" y="-496.5" font-family="Avenir" font-size="10.00">Range: [30.034 &#45; 59.950]</text>
</g>
<!-- end_subgraph_1b367ea2&#45;620a&#45;4470&#45;8d48&#45;68c6ee3da4ba_Safely Random&#45;&gt;nodeadcaf0f3&#45;9524&#45;459c&#45;84c8&#45;24cab6be8dd3 -->
<g id="edge17" class="edge">
<title>end_subgraph_1b367ea2&#45;620a&#45;4470&#45;8d48&#45;68c6ee3da4ba_Safely Random&#45;&gt;nodeadcaf0f3&#45;9524&#45;459c&#45;84c8&#45;24cab6be8dd3</title>
<path fill="none" stroke="#f46d43" d="M253.75,-489.22C253.75,-489.22 253.75,-480.81 253.75,-480.81"/>
<polygon fill="#f46d43" stroke="#f46d43" points="257.25,-480.81 253.75,-470.81 250.25,-480.81 257.25,-480.81"/>
</g>
<!-- node7ac191b9&#45;8dee&#45;4ee7&#45;8d5b&#45;48094fc4dbae -->
<g id="node11" class="node">
<title>node7ac191b9&#45;8dee&#45;4ee7&#45;8d5b&#45;48094fc4dbae</title>
<polygon fill="none" stroke="#a50026" points="171.5,-622 171.5,-665 282.5,-665 282.5,-622 171.5,-622"/>
<text text-anchor="middle" x="227" y="-654.6" font-family="Avenir" font-size="8.00">Roll 2 (UniformGenerator)</text>
<polyline fill="none" stroke="#a50026" points="171.5,-648 282.5,-648 "/>
<text text-anchor="middle" x="227" y="-637.6" font-family="Avenir" font-size="8.00">lower_bound=20</text>
<text text-anchor="middle" x="227" y="-628.6" font-family="Avenir" font-size="8.00">upper_bound=40</text>
</g>
<!-- node222b50a2&#45;9aa2&#45;45f7&#45;8e65&#45;286fc512189a&#45;&gt;node7ac191b9&#45;8dee&#45;4ee7&#45;8d5b&#45;48094fc4dbae -->
<g id="edge7" class="edge">
<title>node222b50a2&#45;9aa2&#45;45f7&#45;8e65&#45;286fc512189a&#45;&gt;node7ac191b9&#45;8dee&#45;4ee7&#45;8d5b&#45;48094fc4dbae</title>
<path fill="none" stroke="#a50026" d="M227.5,-707.42C227.5,-707.42 227.5,-675.07 227.5,-675.07"/>
<polygon fill="#a50026" stroke="#a50026" points="231,-675.07 227.5,-665.07 224,-675.07 231,-675.07"/>
</g>
<!-- node7ac191b9&#45;8dee&#45;4ee7&#45;8d5b&#45;48094fc4dbae&#45;&gt;end_subgraph_1b367ea2&#45;620a&#45;4470&#45;8d48&#45;68c6ee3da4ba_Safely Random -->
<g id="edge8" class="edge">
<title>node7ac191b9&#45;8dee&#45;4ee7&#45;8d5b&#45;48094fc4dbae&#45;&gt;end_subgraph_1b367ea2&#45;620a&#45;4470&#45;8d48&#45;68c6ee3da4ba_Safely Random</title>
<path fill="none" stroke="#a50026" d="M227,-621.97C227,-621.97 227,-589.88 227,-589.88"/>
<polygon fill="#a50026" stroke="#a50026" points="230.5,-589.88 227,-579.88 223.5,-589.88 230.5,-589.88"/>
</g>
<!-- node75c6c4dd&#45;db81&#45;480b&#45;ab67&#45;1c0ea65a2764 -->
<g id="node14" class="node">
<title>node75c6c4dd&#45;db81&#45;480b&#45;ab67&#45;1c0ea65a2764</title>
<polygon fill="none" stroke="#a50026" points="466,-622 466,-665 584,-665 584,-622 466,-622"/>
<text text-anchor="middle" x="525" y="-654.6" font-family="Avenir" font-size="8.00">Erratic (BernoulliGenerator)</text>
<polyline fill="none" stroke="#a50026" points="466,-648 584,-648 "/>
<text text-anchor="middle" x="525" y="-637.6" font-family="Avenir" font-size="8.00">prob=0.1</text>
<text text-anchor="middle" x="525" y="-628.6" font-family="Avenir" font-size="8.00">cost=100</text>
</g>
<!-- start_subgraph_bfc95420&#45;bdb8&#45;46d1&#45;90e9&#45;f23fe4de7da1_Flaky Latency&#45;&gt;node75c6c4dd&#45;db81&#45;480b&#45;ab67&#45;1c0ea65a2764 -->
<g id="edge10" class="edge">
<title>start_subgraph_bfc95420&#45;bdb8&#45;46d1&#45;90e9&#45;f23fe4de7da1_Flaky Latency&#45;&gt;node75c6c4dd&#45;db81&#45;480b&#45;ab67&#45;1c0ea65a2764</title>
<path fill="none" stroke="#a50026" d="M518,-710.87C518,-710.87 518,-675.24 518,-675.24"/>
<polygon fill="#a50026" stroke="#a50026" points="521.5,-675.24 518,-665.24 514.5,-675.24 521.5,-675.24"/>
</g>
<!-- end_subgraph_daec6a5c&#45;dec5&#45;4afa&#45;80d9&#45;95788f53cea9_Flaky Latency -->
<g id="node13" class="node">
<title>end_subgraph_daec6a5c&#45;dec5&#45;4afa&#45;80d9&#45;95788f53cea9_Flaky Latency</title>
<polygon fill="none" stroke="#a50026" points="473.5,-489.5 473.5,-579.5 562.5,-579.5 562.5,-489.5 473.5,-489.5"/>
<text text-anchor="middle" x="518" y="-567.5" font-family="Avenir" font-size="10.00">Flaky Latency ⬆️</text>
<polyline fill="none" stroke="#a50026" points="473.5,-560.5 562.5,-560.5 "/>
<text text-anchor="middle" x="518" y="-548.5" font-family="Avenir" font-size="10.00">p50=0</text>
<text text-anchor="middle" x="518" y="-537.5" font-family="Avenir" font-size="10.00">p99=100</text>
<text text-anchor="middle" x="518" y="-526.5" font-family="Avenir" font-size="10.00">p99.5=100</text>
<text text-anchor="middle" x="518" y="-515.5" font-family="Avenir" font-size="10.00">p100=100</text>
<polyline fill="none" stroke="#a50026" points="473.5,-508.5 562.5,-508.5 "/>
<text text-anchor="middle" x="518" y="-496.5" font-family="Avenir" font-size="10.00">Range: [0 &#45; 100]</text>
</g>
<!-- end_subgraph_daec6a5c&#45;dec5&#45;4afa&#45;80d9&#45;95788f53cea9_Flaky Latency&#45;&gt;nodeadcaf0f3&#45;9524&#45;459c&#45;84c8&#45;24cab6be8dd3 -->
<g id="edge18" class="edge">
<title>end_subgraph_daec6a5c&#45;dec5&#45;4afa&#45;80d9&#45;95788f53cea9_Flaky Latency&#45;&gt;nodeadcaf0f3&#45;9524&#45;459c&#45;84c8&#45;24cab6be8dd3</title>
<path fill="none" stroke="#f46d43" d="M473.29,-534C418.07,-534 331.33,-534 331.33,-534 331.33,-534 331.33,-480.57 331.33,-480.57"/>
<polygon fill="#f46d43" stroke="#f46d43" points="334.83,-480.57 331.33,-470.57 327.83,-480.57 334.83,-480.57"/>
</g>
<!-- node75c6c4dd&#45;db81&#45;480b&#45;ab67&#45;1c0ea65a2764&#45;&gt;end_subgraph_daec6a5c&#45;dec5&#45;4afa&#45;80d9&#45;95788f53cea9_Flaky Latency -->
<g id="edge11" class="edge">
<title>node75c6c4dd&#45;db81&#45;480b&#45;ab67&#45;1c0ea65a2764&#45;&gt;end_subgraph_daec6a5c&#45;dec5&#45;4afa&#45;80d9&#45;95788f53cea9_Flaky Latency</title>
<path fill="none" stroke="#a50026" d="M518,-621.97C518,-621.97 518,-589.88 518,-589.88"/>
<polygon fill="#a50026" stroke="#a50026" points="521.5,-589.88 518,-579.88 514.5,-589.88 521.5,-589.88"/>
</g>
<!-- nodea31bbb83&#45;eda7&#45;4f75&#45;be9b&#45;fde7ce9a664f -->
<g id="node17" class="node">
<title>nodea31bbb83&#45;eda7&#45;4f75&#45;be9b&#45;fde7ce9a664f</title>
<polygon fill="none" stroke="#a50026" points="310.5,-711 310.5,-747 441.5,-747 441.5,-711 310.5,-711"/>
<text text-anchor="middle" x="376" y="-736.1" font-family="Avenir" font-size="8.00">Failing Step (FailingGenerator)</text>
<polyline fill="none" stroke="#a50026" points="310.5,-729 441.5,-729 "/>
<text text-anchor="middle" x="376" y="-718.1" font-family="Avenir" font-size="8.00">failure_rate=0.1</text>
</g>
<!-- start_subgraph_b6107163&#45;7bb7&#45;4341&#45;aef2&#45;02409f4b8ccb_Troublesome&#45;&gt;nodea31bbb83&#45;eda7&#45;4f75&#45;be9b&#45;fde7ce9a664f -->
<g id="edge13" class="edge">
<title>start_subgraph_b6107163&#45;7bb7&#45;4341&#45;aef2&#45;02409f4b8ccb_Troublesome&#45;&gt;nodea31bbb83&#45;eda7&#45;4f75&#45;be9b&#45;fde7ce9a664f</title>
<path fill="none" stroke="#a50026" d="M364,-782.83C364,-782.83 364,-757.41 364,-757.41"/>
<polygon fill="#a50026" stroke="#a50026" points="367.5,-757.41 364,-747.41 360.5,-757.41 367.5,-757.41"/>
</g>
<!-- end_subgraph_3b39416b&#45;e73b&#45;401d&#45;97b3&#45;778e61c5ba85_Troublesome -->
<g id="node16" class="node">
<title>end_subgraph_3b39416b&#45;e73b&#45;401d&#45;97b3&#45;778e61c5ba85_Troublesome</title>
<polygon fill="none" stroke="#a50026" points="321,-598.5 321,-688.5 407,-688.5 407,-598.5 321,-598.5"/>
<text text-anchor="middle" x="364" y="-676.5" font-family="Avenir" font-size="10.00">Troublesome ⬆️</text>
<polyline fill="none" stroke="#a50026" points="321,-669.5 407,-669.5 "/>
<text text-anchor="middle" x="364" y="-657.5" font-family="Avenir" font-size="10.00">p50=0</text>
<text text-anchor="middle" x="364" y="-646.5" font-family="Avenir" font-size="10.00">p99=0</text>
<text text-anchor="middle" x="364" y="-635.5" font-family="Avenir" font-size="10.00">p99.5=0</text>
<text text-anchor="middle" x="364" y="-624.5" font-family="Avenir" font-size="10.00">p100=0</text>
<polyline fill="none" stroke="#a50026" points="321,-617.5 407,-617.5 "/>
<text text-anchor="middle" x="364" y="-605.5" font-family="Avenir" font-size="10.00">Range: [0 &#45; 0]</text>
</g>
<!-- end_subgraph_3b39416b&#45;e73b&#45;401d&#45;97b3&#45;778e61c5ba85_Troublesome&#45;&gt;nodeadcaf0f3&#45;9524&#45;459c&#45;84c8&#45;24cab6be8dd3 -->
<g id="edge19" class="edge">
<title>end_subgraph_3b39416b&#45;e73b&#45;401d&#45;97b3&#45;778e61c5ba85_Troublesome&#45;&gt;nodeadcaf0f3&#45;9524&#45;459c&#45;84c8&#45;24cab6be8dd3</title>
<path fill="none" stroke="#f46d43" d="M326.17,-598.33C326.17,-598.33 326.17,-480.61 326.17,-480.61"/>
<polygon fill="#f46d43" stroke="#f46d43" points="329.67,-480.61 326.17,-470.61 322.67,-480.61 329.67,-480.61"/>
</g>
<!-- nodea31bbb83&#45;eda7&#45;4f75&#45;be9b&#45;fde7ce9a664f&#45;&gt;end_subgraph_3b39416b&#45;e73b&#45;401d&#45;97b3&#45;778e61c5ba85_Troublesome -->
<g id="edge14" class="edge">
<title>nodea31bbb83&#45;eda7&#45;4f75&#45;be9b&#45;fde7ce9a664f&#45;&gt;end_subgraph_3b39416b&#45;e73b&#45;401d&#45;97b3&#45;778e61c5ba85_Troublesome</title>
<path fill="none" stroke="#a50026" d="M364,-710.87C364,-710.87 364,-698.7 364,-698.7"/>
<polygon fill="#a50026" stroke="#a50026" points="367.5,-698.7 364,-688.7 360.5,-698.7 367.5,-698.7"/>
</g>
</g>
</svg>
