<?xml version="1.0" encoding="UTF-8" standalone="no"?>
<!DOCTYPE svg PUBLIC "-//W3C//DTD SVG 1.1//EN"
 "http://www.w3.org/Graphics/SVG/1.1/DTD/svg11.dtd">
<!-- Generated by graphviz version 2.44.1 (20200629.0846)
 -->
<!-- Title: workflow Pages: 1 -->
<svg width="492pt" height="910pt"
 viewBox="0.00 0.00 492.00 909.50" xmlns="http://www.w3.org/2000/svg" xmlns:xlink="http://www.w3.org/1999/xlink">
<g id="graph0" class="graph" transform="scale(1 1) rotate(0) translate(4 905.5)">
<title>workflow</title>
<polygon fill="white" stroke="#000000" points="-4,4 -4,-905.5 488,-905.5 488,4 -4,4"/>
<text text-anchor="start" x="136.5" y="-879.3" font-family="Avenir" font-weight="bold" font-size="24.00">Example Workflow</text>
<g id="clust1" class="cluster">
<title>cluster_160d1f1b&#45;f970&#45;4ea5&#45;a1e4&#45;69a2cdbf738a_Some Work</title>
<polygon fill="none" stroke="#3288bd" points="32,-469 32,-822.5 132,-822.5 132,-469 32,-469"/>
<text text-anchor="start" x="54.5" y="-811.5" font-family="Avenir" font-weight="bold" font-size="10.00">Some Work</text>
</g>
<g id="clust2" class="cluster">
<title>cluster_52dcc91c&#45;6ebf&#45;49a9&#45;8828&#45;df50794bc16c_Safely Random</title>
<polygon fill="none" stroke="#3288bd" points="140,-469 140,-822.5 252,-822.5 252,-469 140,-469"/>
<text text-anchor="start" x="161" y="-811.5" font-family="Avenir" font-weight="bold" font-size="10.00">Safely Random</text>
</g>
<g id="clust3" class="cluster">
<title>cluster_4bed9207&#45;da5b&#45;4b10&#45;b464&#45;c39d46aba400_Flaky Latency</title>
<polygon fill="none" stroke="#3288bd" points="370,-469 370,-750.5 476,-750.5 476,-469 370,-469"/>
<text text-anchor="start" x="391" y="-739.5" font-family="Avenir" font-weight="bold" font-size="10.00">Flaky Latency</text>
</g>
<g id="clust4" class="cluster">
<title>cluster_ffdcc097&#45;541e&#45;499c&#45;8576&#45;3d761317b003_Troublesome</title>
<polygon fill="none" stroke="#3288bd" points="260,-576 260,-822.5 362,-822.5 362,-576 260,-576"/>
<text text-anchor="start" x="280.5" y="-811.5" font-family="Avenir" font-weight="bold" font-size="10.00">Troublesome</text>
</g>
<!-- nodec320c39a&#45;0c54&#45;4bf1&#45;9ae5&#45;ed353e3db2cf -->
<g id="node1" class="node">
<title>nodec320c39a&#45;0c54&#45;4bf1&#45;9ae5&#45;ed353e3db2cf</title>
<polygon fill="none" stroke="#f46d43" points="226,-831 226,-867 280,-867 280,-831 226,-831"/>
<text text-anchor="middle" x="253" y="-846.5" font-family="Avenir" font-size="10.00">START</text>
</g>
<!-- start_subgraph_dae88946&#45;97d1&#45;41ed&#45;8d7b&#45;28d833ce52f2_Some Work -->
<g id="node4" class="node">
<title>start_subgraph_dae88946&#45;97d1&#45;41ed&#45;8d7b&#45;28d833ce52f2_Some Work</title>
<polygon fill="none" stroke="#3288bd" points="41.5,-759 41.5,-795 122.5,-795 122.5,-759 41.5,-759"/>
<text text-anchor="middle" x="82" y="-774.5" font-family="Avenir" font-size="10.00">Some Work ⬇️</text>
</g>
<!-- nodec320c39a&#45;0c54&#45;4bf1&#45;9ae5&#45;ed353e3db2cf&#45;&gt;start_subgraph_dae88946&#45;97d1&#45;41ed&#45;8d7b&#45;28d833ce52f2_Some Work -->
<g id="edge5" class="edge">
<title>nodec320c39a&#45;0c54&#45;4bf1&#45;9ae5&#45;ed353e3db2cf&#45;&gt;start_subgraph_dae88946&#45;97d1&#45;41ed&#45;8d7b&#45;28d833ce52f2_Some Work</title>
<path fill="none" stroke="#f46d43" d="M225.9,-849C177.69,-849 82,-849 82,-849 82,-849 82,-805.17 82,-805.17"/>
<polygon fill="#f46d43" stroke="#f46d43" points="85.5,-805.17 82,-795.17 78.5,-805.17 85.5,-805.17"/>
</g>
<!-- start_subgraph_3e5be1e7&#45;dbc4&#45;43eb&#45;a190&#45;8bf159d4e4cd_Safely Random -->
<g id="node8" class="node">
<title>start_subgraph_3e5be1e7&#45;dbc4&#45;43eb&#45;a190&#45;8bf159d4e4cd_Safely Random</title>
<polygon fill="none" stroke="#3288bd" points="148.5,-759 148.5,-795 243.5,-795 243.5,-759 148.5,-759"/>
<text text-anchor="middle" x="196" y="-774.5" font-family="Avenir" font-size="10.00">Safely Random ⬇️</text>
</g>
<!-- nodec320c39a&#45;0c54&#45;4bf1&#45;9ae5&#45;ed353e3db2cf&#45;&gt;start_subgraph_3e5be1e7&#45;dbc4&#45;43eb&#45;a190&#45;8bf159d4e4cd_Safely Random -->
<g id="edge9" class="edge">
<title>nodec320c39a&#45;0c54&#45;4bf1&#45;9ae5&#45;ed353e3db2cf&#45;&gt;start_subgraph_3e5be1e7&#45;dbc4&#45;43eb&#45;a190&#45;8bf159d4e4cd_Safely Random</title>
<path fill="none" stroke="#f46d43" d="M234.75,-830.83C234.75,-830.83 234.75,-805.41 234.75,-805.41"/>
<polygon fill="#f46d43" stroke="#f46d43" points="238.25,-805.41 234.75,-795.41 231.25,-805.41 238.25,-805.41"/>
</g>
<!-- start_subgraph_6f6598e8&#45;2ffc&#45;4965&#45;9150&#45;c1e2d5dfee0b_Flaky Latency -->
<g id="node12" class="node">
<title>start_subgraph_6f6598e8&#45;2ffc&#45;4965&#45;9150&#45;c1e2d5dfee0b_Flaky Latency</title>
<polygon fill="none" stroke="#3288bd" points="378.5,-687 378.5,-723 467.5,-723 467.5,-687 378.5,-687"/>
<text text-anchor="middle" x="423" y="-702.5" font-family="Avenir" font-size="10.00">Flaky Latency ⬇️</text>
</g>
<!-- nodec320c39a&#45;0c54&#45;4bf1&#45;9ae5&#45;ed353e3db2cf&#45;&gt;start_subgraph_6f6598e8&#45;2ffc&#45;4965&#45;9150&#45;c1e2d5dfee0b_Flaky Latency -->
<g id="edge12" class="edge">
<title>nodec320c39a&#45;0c54&#45;4bf1&#45;9ae5&#45;ed353e3db2cf&#45;&gt;start_subgraph_6f6598e8&#45;2ffc&#45;4965&#45;9150&#45;c1e2d5dfee0b_Flaky Latency</title>
<path fill="none" stroke="#f46d43" d="M280.31,-849C328.37,-849 423,-849 423,-849 423,-849 423,-733.24 423,-733.24"/>
<polygon fill="#f46d43" stroke="#f46d43" points="426.5,-733.24 423,-723.24 419.5,-733.24 426.5,-733.24"/>
</g>
<!-- start_subgraph_6c33b954&#45;ad09&#45;4022&#45;82a1&#45;bc3336086d9c_Troublesome -->
<g id="node15" class="node">
<title>start_subgraph_6c33b954&#45;ad09&#45;4022&#45;82a1&#45;bc3336086d9c_Troublesome</title>
<polygon fill="none" stroke="#3288bd" points="268,-759 268,-795 354,-795 354,-759 268,-759"/>
<text text-anchor="middle" x="311" y="-774.5" font-family="Avenir" font-size="10.00">Troublesome ⬇️</text>
</g>
<!-- nodec320c39a&#45;0c54&#45;4bf1&#45;9ae5&#45;ed353e3db2cf&#45;&gt;start_subgraph_6c33b954&#45;ad09&#45;4022&#45;82a1&#45;bc3336086d9c_Troublesome -->
<g id="edge15" class="edge">
<title>nodec320c39a&#45;0c54&#45;4bf1&#45;9ae5&#45;ed353e3db2cf&#45;&gt;start_subgraph_6c33b954&#45;ad09&#45;4022&#45;82a1&#45;bc3336086d9c_Troublesome</title>
<path fill="none" stroke="#f46d43" d="M274,-830.83C274,-830.83 274,-805.41 274,-805.41"/>
<polygon fill="#f46d43" stroke="#f46d43" points="277.5,-805.41 274,-795.41 270.5,-805.41 277.5,-805.41"/>
</g>
<!-- node2951f318&#45;4d0c&#45;4a47&#45;900a&#45;4e16fcf0644f -->
<g id="node2" class="node">
<title>node2951f318&#45;4d0c&#45;4a47&#45;900a&#45;4e16fcf0644f</title>
<polygon fill="none" stroke="#f46d43" stroke-width="2" points="183.5,-370.5 183.5,-460.5 298.5,-460.5 298.5,-370.5 183.5,-370.5"/>
<text text-anchor="middle" x="241" y="-448.5" font-family="Avenir" font-size="10.00">Simulation (n=100000)</text>
<polyline fill="none" stroke="#f46d43" stroke-width="2" points="183.5,-441.5 298.5,-441.5 "/>
<text text-anchor="middle" x="241" y="-429.5" font-family="Avenir" font-size="10.00">p50=46.133</text>
<text text-anchor="middle" x="241" y="-418.5" font-family="Avenir" font-size="10.00">p99=100.000</text>
<text text-anchor="middle" x="241" y="-407.5" font-family="Avenir" font-size="10.00">p99.5=100.000</text>
<text text-anchor="middle" x="241" y="-396.5" font-family="Avenir" font-size="10.00">p100=100.000</text>
<polyline fill="none" stroke="#f46d43" stroke-width="2" points="183.5,-389.5 298.5,-389.5 "/>
<text text-anchor="middle" x="241" y="-377.5" font-family="Avenir" font-size="10.00">[30.096 &#45; 100.000]</text>
</g>
<!-- noded2b7c096&#45;be2f&#45;4cc0&#45;bbca&#45;482cabf87f7b -->
<g id="node3" class="node">
<title>noded2b7c096&#45;be2f&#45;4cc0&#45;bbca&#45;482cabf87f7b</title>
<image xlink:href="results.png" width="482px" height="362px" preserveAspectRatio="xMinYMin meet" x="0" y="-362"/>
</g>
<!-- node2951f318&#45;4d0c&#45;4a47&#45;900a&#45;4e16fcf0644f&#45;&gt;noded2b7c096&#45;be2f&#45;4cc0&#45;bbca&#45;482cabf87f7b -->
<g id="edge1" class="edge">
<title>node2951f318&#45;4d0c&#45;4a47&#45;900a&#45;4e16fcf0644f&#45;&gt;noded2b7c096&#45;be2f&#45;4cc0&#45;bbca&#45;482cabf87f7b</title>
<path fill="none" stroke="#f46d43" stroke-width="5" d="M241,-370.29C241,-370.29 241,-369.46 241,-369.46"/>
<polygon fill="#f46d43" stroke="#f46d43" stroke-width="5" points="245.38,-372.07 241,-362.07 236.63,-372.07 245.38,-372.07"/>
</g>
<!-- node4a690a4f&#45;8bcf&#45;4fec&#45;a057&#45;0af894c3d30d -->
<g id="node6" class="node">
<title>node4a690a4f&#45;8bcf&#45;4fec&#45;a057&#45;0af894c3d30d</title>
<polygon fill="none" stroke="#3288bd" points="41.5,-683.5 41.5,-726.5 122.5,-726.5 122.5,-683.5 41.5,-683.5"/>
<text text-anchor="middle" x="82" y="-716.1" font-family="Avenir" font-size="8.00">NormalGenerator</text>
<polyline fill="none" stroke="#3288bd" points="41.5,-709.5 122.5,-709.5 "/>
<text text-anchor="middle" x="82" y="-699.1" font-family="Avenir" font-size="8.00">mean=10</text>
<text text-anchor="middle" x="82" y="-690.1" font-family="Avenir" font-size="8.00">std_dev=2</text>
</g>
<!-- start_subgraph_dae88946&#45;97d1&#45;41ed&#45;8d7b&#45;28d833ce52f2_Some Work&#45;&gt;node4a690a4f&#45;8bcf&#45;4fec&#45;a057&#45;0af894c3d30d -->
<g id="edge2" class="edge">
<title>start_subgraph_dae88946&#45;97d1&#45;41ed&#45;8d7b&#45;28d833ce52f2_Some Work&#45;&gt;node4a690a4f&#45;8bcf&#45;4fec&#45;a057&#45;0af894c3d30d</title>
<path fill="none" stroke="#3288bd" d="M82,-758.83C82,-758.83 82,-736.75 82,-736.75"/>
<polygon fill="#3288bd" stroke="#3288bd" points="85.5,-736.75 82,-726.75 78.5,-736.76 85.5,-736.75"/>
</g>
<!-- end_subgraph_151fe4d7&#45;209b&#45;4a49&#45;b8fb&#45;84f17545c47c_Some Work -->
<g id="node5" class="node">
<title>end_subgraph_151fe4d7&#45;209b&#45;4a49&#45;b8fb&#45;84f17545c47c_Some Work</title>
<polygon fill="none" stroke="#3288bd" points="40.5,-477.5 40.5,-567.5 123.5,-567.5 123.5,-477.5 40.5,-477.5"/>
<text text-anchor="middle" x="82" y="-555.5" font-family="Avenir" font-size="10.00">Some Work ⬆️</text>
<polyline fill="none" stroke="#3288bd" points="40.5,-548.5 123.5,-548.5 "/>
<text text-anchor="middle" x="82" y="-536.5" font-family="Avenir" font-size="10.00">p50=17.986</text>
<text text-anchor="middle" x="82" y="-525.5" font-family="Avenir" font-size="10.00">p99=24.558</text>
<text text-anchor="middle" x="82" y="-514.5" font-family="Avenir" font-size="10.00">p99.5=25.287</text>
<text text-anchor="middle" x="82" y="-503.5" font-family="Avenir" font-size="10.00">p100=30.051</text>
<polyline fill="none" stroke="#3288bd" points="40.5,-496.5 123.5,-496.5 "/>
<text text-anchor="middle" x="82" y="-484.5" font-family="Avenir" font-size="10.00">[5.387 &#45; 30.051]</text>
</g>
<!-- end_subgraph_151fe4d7&#45;209b&#45;4a49&#45;b8fb&#45;84f17545c47c_Some Work&#45;&gt;node2951f318&#45;4d0c&#45;4a47&#45;900a&#45;4e16fcf0644f -->
<g id="edge16" class="edge">
<title>end_subgraph_151fe4d7&#45;209b&#45;4a49&#45;b8fb&#45;84f17545c47c_Some Work&#45;&gt;node2951f318&#45;4d0c&#45;4a47&#45;900a&#45;4e16fcf0644f</title>
<path fill="none" stroke="#f46d43" d="M82,-477.22C82,-447.84 82,-415 82,-415 82,-415 173.15,-415 173.15,-415"/>
<polygon fill="#f46d43" stroke="#f46d43" points="173.15,-418.5 183.15,-415 173.15,-411.5 173.15,-418.5"/>
</g>
<!-- node6ecea332&#45;842d&#45;497f&#45;83ce&#45;7999cb98b7fd -->
<g id="node7" class="node">
<title>node6ecea332&#45;842d&#45;497f&#45;83ce&#45;7999cb98b7fd</title>
<polygon fill="none" stroke="#3288bd" points="41.5,-608 41.5,-651 122.5,-651 122.5,-608 41.5,-608"/>
<text text-anchor="middle" x="82" y="-640.6" font-family="Avenir" font-size="8.00">NormalGenerator</text>
<polyline fill="none" stroke="#3288bd" points="41.5,-634 122.5,-634 "/>
<text text-anchor="middle" x="82" y="-623.6" font-family="Avenir" font-size="8.00">mean=8</text>
<text text-anchor="middle" x="82" y="-614.6" font-family="Avenir" font-size="8.00">std_dev=2</text>
</g>
<!-- node4a690a4f&#45;8bcf&#45;4fec&#45;a057&#45;0af894c3d30d&#45;&gt;node6ecea332&#45;842d&#45;497f&#45;83ce&#45;7999cb98b7fd -->
<g id="edge3" class="edge">
<title>node4a690a4f&#45;8bcf&#45;4fec&#45;a057&#45;0af894c3d30d&#45;&gt;node6ecea332&#45;842d&#45;497f&#45;83ce&#45;7999cb98b7fd</title>
<path fill="none" stroke="#3288bd" d="M82,-683.16C82,-683.16 82,-661.03 82,-661.03"/>
<polygon fill="#3288bd" stroke="#3288bd" points="85.5,-661.03 82,-651.03 78.5,-661.03 85.5,-661.03"/>
</g>
<!-- node6ecea332&#45;842d&#45;497f&#45;83ce&#45;7999cb98b7fd&#45;&gt;end_subgraph_151fe4d7&#45;209b&#45;4a49&#45;b8fb&#45;84f17545c47c_Some Work -->
<g id="edge4" class="edge">
<title>node6ecea332&#45;842d&#45;497f&#45;83ce&#45;7999cb98b7fd&#45;&gt;end_subgraph_151fe4d7&#45;209b&#45;4a49&#45;b8fb&#45;84f17545c47c_Some Work</title>
<path fill="none" stroke="#3288bd" d="M82,-607.85C82,-607.85 82,-577.54 82,-577.54"/>
<polygon fill="#3288bd" stroke="#3288bd" points="85.5,-577.54 82,-567.54 78.5,-577.54 85.5,-577.54"/>
</g>
<!-- node9e251736&#45;7be5&#45;400d&#45;8133&#45;f1eb4f645324 -->
<g id="node10" class="node">
<title>node9e251736&#45;7be5&#45;400d&#45;8133&#45;f1eb4f645324</title>
<polygon fill="none" stroke="#3288bd" points="154.5,-683.5 154.5,-726.5 237.5,-726.5 237.5,-683.5 154.5,-683.5"/>
<text text-anchor="middle" x="196" y="-716.1" font-family="Avenir" font-size="8.00">UniformGenerator</text>
<polyline fill="none" stroke="#3288bd" points="154.5,-709.5 237.5,-709.5 "/>
<text text-anchor="middle" x="196" y="-699.1" font-family="Avenir" font-size="8.00">lower_bound=10</text>
<text text-anchor="middle" x="196" y="-690.1" font-family="Avenir" font-size="8.00">upper_bound=20</text>
</g>
<!-- start_subgraph_3e5be1e7&#45;dbc4&#45;43eb&#45;a190&#45;8bf159d4e4cd_Safely Random&#45;&gt;node9e251736&#45;7be5&#45;400d&#45;8133&#45;f1eb4f645324 -->
<g id="edge6" class="edge">
<title>start_subgraph_3e5be1e7&#45;dbc4&#45;43eb&#45;a190&#45;8bf159d4e4cd_Safely Random&#45;&gt;node9e251736&#45;7be5&#45;400d&#45;8133&#45;f1eb4f645324</title>
<path fill="none" stroke="#3288bd" d="M196,-758.83C196,-758.83 196,-736.75 196,-736.75"/>
<polygon fill="#3288bd" stroke="#3288bd" points="199.5,-736.75 196,-726.75 192.5,-736.76 199.5,-736.75"/>
</g>
<!-- end_subgraph_676e1a70&#45;b1a0&#45;455d&#45;af2b&#45;a2bbb6fc9cb4_Safely Random -->
<g id="node9" class="node">
<title>end_subgraph_676e1a70&#45;b1a0&#45;455d&#45;af2b&#45;a2bbb6fc9cb4_Safely Random</title>
<polygon fill="none" stroke="#3288bd" points="148.5,-477.5 148.5,-567.5 243.5,-567.5 243.5,-477.5 148.5,-477.5"/>
<text text-anchor="middle" x="196" y="-555.5" font-family="Avenir" font-size="10.00">Safely Random ⬆️</text>
<polyline fill="none" stroke="#3288bd" points="148.5,-548.5 243.5,-548.5 "/>
<text text-anchor="middle" x="196" y="-536.5" font-family="Avenir" font-size="10.00">p50=45.006</text>
<text text-anchor="middle" x="196" y="-525.5" font-family="Avenir" font-size="10.00">p99=58.058</text>
<text text-anchor="middle" x="196" y="-514.5" font-family="Avenir" font-size="10.00">p99.5=58.642</text>
<text text-anchor="middle" x="196" y="-503.5" font-family="Avenir" font-size="10.00">p100=59.958</text>
<polyline fill="none" stroke="#3288bd" points="148.5,-496.5 243.5,-496.5 "/>
<text text-anchor="middle" x="196" y="-484.5" font-family="Avenir" font-size="10.00">[30.096 &#45; 59.958]</text>
</g>
<!-- end_subgraph_676e1a70&#45;b1a0&#45;455d&#45;af2b&#45;a2bbb6fc9cb4_Safely Random&#45;&gt;node2951f318&#45;4d0c&#45;4a47&#45;900a&#45;4e16fcf0644f -->
<g id="edge17" class="edge">
<title>end_subgraph_676e1a70&#45;b1a0&#45;455d&#45;af2b&#45;a2bbb6fc9cb4_Safely Random&#45;&gt;node2951f318&#45;4d0c&#45;4a47&#45;900a&#45;4e16fcf0644f</title>
<path fill="none" stroke="#f46d43" d="M213.5,-477.43C213.5,-477.43 213.5,-470.52 213.5,-470.52"/>
<polygon fill="#f46d43" stroke="#f46d43" points="217,-470.52 213.5,-460.52 210,-470.52 217,-470.52"/>
</g>
<!-- node1dd2a8bf&#45;12f5&#45;4415&#45;a02e&#45;2bcafbdc87ca -->
<g id="node11" class="node">
<title>node1dd2a8bf&#45;12f5&#45;4415&#45;a02e&#45;2bcafbdc87ca</title>
<polygon fill="none" stroke="#3288bd" points="154.5,-608 154.5,-651 237.5,-651 237.5,-608 154.5,-608"/>
<text text-anchor="middle" x="196" y="-640.6" font-family="Avenir" font-size="8.00">UniformGenerator</text>
<polyline fill="none" stroke="#3288bd" points="154.5,-634 237.5,-634 "/>
<text text-anchor="middle" x="196" y="-623.6" font-family="Avenir" font-size="8.00">lower_bound=20</text>
<text text-anchor="middle" x="196" y="-614.6" font-family="Avenir" font-size="8.00">upper_bound=40</text>
</g>
<!-- node9e251736&#45;7be5&#45;400d&#45;8133&#45;f1eb4f645324&#45;&gt;node1dd2a8bf&#45;12f5&#45;4415&#45;a02e&#45;2bcafbdc87ca -->
<g id="edge7" class="edge">
<title>node9e251736&#45;7be5&#45;400d&#45;8133&#45;f1eb4f645324&#45;&gt;node1dd2a8bf&#45;12f5&#45;4415&#45;a02e&#45;2bcafbdc87ca</title>
<path fill="none" stroke="#3288bd" d="M196,-683.16C196,-683.16 196,-661.03 196,-661.03"/>
<polygon fill="#3288bd" stroke="#3288bd" points="199.5,-661.03 196,-651.03 192.5,-661.03 199.5,-661.03"/>
</g>
<!-- node1dd2a8bf&#45;12f5&#45;4415&#45;a02e&#45;2bcafbdc87ca&#45;&gt;end_subgraph_676e1a70&#45;b1a0&#45;455d&#45;af2b&#45;a2bbb6fc9cb4_Safely Random -->
<g id="edge8" class="edge">
<title>node1dd2a8bf&#45;12f5&#45;4415&#45;a02e&#45;2bcafbdc87ca&#45;&gt;end_subgraph_676e1a70&#45;b1a0&#45;455d&#45;af2b&#45;a2bbb6fc9cb4_Safely Random</title>
<path fill="none" stroke="#3288bd" d="M196,-607.85C196,-607.85 196,-577.54 196,-577.54"/>
<polygon fill="#3288bd" stroke="#3288bd" points="199.5,-577.54 196,-567.54 192.5,-577.54 199.5,-577.54"/>
</g>
<!-- node7408007d&#45;1604&#45;427c&#45;bc8e&#45;95e5b02dd5c4 -->
<g id="node14" class="node">
<title>node7408007d&#45;1604&#45;427c&#45;bc8e&#45;95e5b02dd5c4</title>
<polygon fill="none" stroke="#3288bd" points="379.5,-608 379.5,-651 466.5,-651 466.5,-608 379.5,-608"/>
<text text-anchor="middle" x="423" y="-640.6" font-family="Avenir" font-size="8.00">BernoulliGenerator</text>
<polyline fill="none" stroke="#3288bd" points="379.5,-634 466.5,-634 "/>
<text text-anchor="middle" x="423" y="-623.6" font-family="Avenir" font-size="8.00">prob=0.1</text>
<text text-anchor="middle" x="423" y="-614.6" font-family="Avenir" font-size="8.00">cost=100</text>
</g>
<!-- start_subgraph_6f6598e8&#45;2ffc&#45;4965&#45;9150&#45;c1e2d5dfee0b_Flaky Latency&#45;&gt;node7408007d&#45;1604&#45;427c&#45;bc8e&#45;95e5b02dd5c4 -->
<g id="edge10" class="edge">
<title>start_subgraph_6f6598e8&#45;2ffc&#45;4965&#45;9150&#45;c1e2d5dfee0b_Flaky Latency&#45;&gt;node7408007d&#45;1604&#45;427c&#45;bc8e&#45;95e5b02dd5c4</title>
<path fill="none" stroke="#3288bd" d="M423,-686.72C423,-686.72 423,-661.09 423,-661.09"/>
<polygon fill="#3288bd" stroke="#3288bd" points="426.5,-661.09 423,-651.09 419.5,-661.09 426.5,-661.09"/>
</g>
<!-- end_subgraph_b75431bf&#45;8ddb&#45;48a3&#45;a4b1&#45;b80a2e4224b1_Flaky Latency -->
<g id="node13" class="node">
<title>end_subgraph_b75431bf&#45;8ddb&#45;48a3&#45;a4b1&#45;b80a2e4224b1_Flaky Latency</title>
<polygon fill="none" stroke="#3288bd" points="378.5,-477.5 378.5,-567.5 467.5,-567.5 467.5,-477.5 378.5,-477.5"/>
<text text-anchor="middle" x="423" y="-555.5" font-family="Avenir" font-size="10.00">Flaky Latency ⬆️</text>
<polyline fill="none" stroke="#3288bd" points="378.5,-548.5 467.5,-548.5 "/>
<text text-anchor="middle" x="423" y="-536.5" font-family="Avenir" font-size="10.00">p50=0.000</text>
<text text-anchor="middle" x="423" y="-525.5" font-family="Avenir" font-size="10.00">p99=100.000</text>
<text text-anchor="middle" x="423" y="-514.5" font-family="Avenir" font-size="10.00">p99.5=100.000</text>
<text text-anchor="middle" x="423" y="-503.5" font-family="Avenir" font-size="10.00">p100=100.000</text>
<polyline fill="none" stroke="#3288bd" points="378.5,-496.5 467.5,-496.5 "/>
<text text-anchor="middle" x="423" y="-484.5" font-family="Avenir" font-size="10.00">[0.000 &#45; 100.000]</text>
</g>
<!-- end_subgraph_b75431bf&#45;8ddb&#45;48a3&#45;a4b1&#45;b80a2e4224b1_Flaky Latency&#45;&gt;node2951f318&#45;4d0c&#45;4a47&#45;900a&#45;4e16fcf0644f -->
<g id="edge18" class="edge">
<title>end_subgraph_b75431bf&#45;8ddb&#45;48a3&#45;a4b1&#45;b80a2e4224b1_Flaky Latency&#45;&gt;node2951f318&#45;4d0c&#45;4a47&#45;900a&#45;4e16fcf0644f</title>
<path fill="none" stroke="#f46d43" d="M378.16,-522C338.98,-522 288.33,-522 288.33,-522 288.33,-522 288.33,-470.67 288.33,-470.67"/>
<polygon fill="#f46d43" stroke="#f46d43" points="291.83,-470.67 288.33,-460.67 284.83,-470.67 291.83,-470.67"/>
</g>
<!-- node7408007d&#45;1604&#45;427c&#45;bc8e&#45;95e5b02dd5c4&#45;&gt;end_subgraph_b75431bf&#45;8ddb&#45;48a3&#45;a4b1&#45;b80a2e4224b1_Flaky Latency -->
<g id="edge11" class="edge">
<title>node7408007d&#45;1604&#45;427c&#45;bc8e&#45;95e5b02dd5c4&#45;&gt;end_subgraph_b75431bf&#45;8ddb&#45;48a3&#45;a4b1&#45;b80a2e4224b1_Flaky Latency</title>
<path fill="none" stroke="#3288bd" d="M423,-607.85C423,-607.85 423,-577.54 423,-577.54"/>
<polygon fill="#3288bd" stroke="#3288bd" points="426.5,-577.54 423,-567.54 419.5,-577.54 426.5,-577.54"/>
</g>
<!-- node0e5c6511&#45;7843&#45;4eac&#45;b87d&#45;af15bc0ee873 -->
<g id="node17" class="node">
<title>node0e5c6511&#45;7843&#45;4eac&#45;b87d&#45;af15bc0ee873</title>
<polygon fill="none" stroke="#3288bd" points="271,-687 271,-723 351,-723 351,-687 271,-687"/>
<text text-anchor="middle" x="311" y="-712.1" font-family="Avenir" font-size="8.00">FailingGenerator</text>
<polyline fill="none" stroke="#3288bd" points="271,-705 351,-705 "/>
<text text-anchor="middle" x="311" y="-694.1" font-family="Avenir" font-size="8.00">failure_rate=0.1</text>
</g>
<!-- start_subgraph_6c33b954&#45;ad09&#45;4022&#45;82a1&#45;bc3336086d9c_Troublesome&#45;&gt;node0e5c6511&#45;7843&#45;4eac&#45;b87d&#45;af15bc0ee873 -->
<g id="edge13" class="edge">
<title>start_subgraph_6c33b954&#45;ad09&#45;4022&#45;82a1&#45;bc3336086d9c_Troublesome&#45;&gt;node0e5c6511&#45;7843&#45;4eac&#45;b87d&#45;af15bc0ee873</title>
<path fill="none" stroke="#3288bd" d="M311,-758.83C311,-758.83 311,-733.41 311,-733.41"/>
<polygon fill="#3288bd" stroke="#3288bd" points="314.5,-733.41 311,-723.41 307.5,-733.41 314.5,-733.41"/>
</g>
<!-- end_subgraph_536ff2f8&#45;9c90&#45;40e7&#45;ac9e&#45;c45b842e0e19_Troublesome -->
<g id="node16" class="node">
<title>end_subgraph_536ff2f8&#45;9c90&#45;40e7&#45;ac9e&#45;c45b842e0e19_Troublesome</title>
<polygon fill="none" stroke="#3288bd" points="268,-584.5 268,-674.5 354,-674.5 354,-584.5 268,-584.5"/>
<text text-anchor="middle" x="311" y="-662.5" font-family="Avenir" font-size="10.00">Troublesome ⬆️</text>
<polyline fill="none" stroke="#3288bd" points="268,-655.5 354,-655.5 "/>
<text text-anchor="middle" x="311" y="-643.5" font-family="Avenir" font-size="10.00">p50=0.000</text>
<text text-anchor="middle" x="311" y="-632.5" font-family="Avenir" font-size="10.00">p99=0.000</text>
<text text-anchor="middle" x="311" y="-621.5" font-family="Avenir" font-size="10.00">p99.5=0.000</text>
<text text-anchor="middle" x="311" y="-610.5" font-family="Avenir" font-size="10.00">p100=0.000</text>
<polyline fill="none" stroke="#3288bd" points="268,-603.5 354,-603.5 "/>
<text text-anchor="middle" x="311" y="-591.5" font-family="Avenir" font-size="10.00">[0.000 &#45; 0.000]</text>
</g>
<!-- end_subgraph_536ff2f8&#45;9c90&#45;40e7&#45;ac9e&#45;c45b842e0e19_Troublesome&#45;&gt;node2951f318&#45;4d0c&#45;4a47&#45;900a&#45;4e16fcf0644f -->
<g id="edge19" class="edge">
<title>end_subgraph_536ff2f8&#45;9c90&#45;40e7&#45;ac9e&#45;c45b842e0e19_Troublesome&#45;&gt;node2951f318&#45;4d0c&#45;4a47&#45;900a&#45;4e16fcf0644f</title>
<path fill="none" stroke="#f46d43" d="M278.17,-584.38C278.17,-584.38 278.17,-470.56 278.17,-470.56"/>
<polygon fill="#f46d43" stroke="#f46d43" points="281.67,-470.56 278.17,-460.56 274.67,-470.56 281.67,-470.56"/>
</g>
<!-- node0e5c6511&#45;7843&#45;4eac&#45;b87d&#45;af15bc0ee873&#45;&gt;end_subgraph_536ff2f8&#45;9c90&#45;40e7&#45;ac9e&#45;c45b842e0e19_Troublesome -->
<g id="edge14" class="edge">
<title>node0e5c6511&#45;7843&#45;4eac&#45;b87d&#45;af15bc0ee873&#45;&gt;end_subgraph_536ff2f8&#45;9c90&#45;40e7&#45;ac9e&#45;c45b842e0e19_Troublesome</title>
<path fill="none" stroke="#3288bd" d="M311,-686.72C311,-686.72 311,-684.63 311,-684.63"/>
<polygon fill="#3288bd" stroke="#3288bd" points="314.5,-684.63 311,-674.63 307.5,-684.63 314.5,-684.63"/>
</g>
</g>
</svg>
